<svg height="511pt" viewBox="0 -19 511.99912 511" width="511pt" xmlns="http://www.w3.org/2000/svg"><path d="m142.421875 386.679688v56.792968c0 12.117188 9.824219 21.941406 21.941406 21.941406h183.269531c12.117188 0 21.941407-9.824218 21.941407-21.941406v-56.792968zm0 0" fill="#e95666"/><path d="m256 138.285156-22.964844-7.964844-43.117187-52.492187-17.808594-44.050781-25.582031-22.320313c-22.042969 5.933594-41.671875 19.328125-55.132813 38.394531-32.730469 46.359376-72.296875 142.835938-82.472656 341.757813l32.699219 27.585937 34.121094-15.34375 39.816406-202.136718s-2.503906 126.847656 26.863281 219.332031h113.578125l49.675781-144.972656zm0 0" fill="#8bbe59"/><path d="m38.269531 416.363281c.203125-10.59375.417969-20.238281.652344-24.753906 10.175781-198.921875 49.742187-295.398437 82.472656-341.761719 9.066407-12.84375 20.945313-23.101562 34.464844-30.25l-9.332031-8.140625c-13.734375 3.695313-26.636719 10.351563-37.585938 19.429688-14.207031 11.785156-24.484375 28.230469-33.253906 44.566406-14.082031 26.230469-24.328125 54.421875-32.550781 82.984375-15.90625 55.273438-28.96875 130.601562-34.21875 233.171875zm0 0" fill="#7aa544"/><path d="m8.921875 391.609375c-.566406 10.984375-1.039063 22.277344-1.414063 33.890625-.238281 7.308594 4.898438 13.695312 12.089844 15.015625l32.890625 6.027344c7.945313 1.457031 15.585938-3.742188 17.144531-11.667969l6.109376-31.027344zm0 0" fill="#e95666"/><path d="m503.078125 391.609375-32.703125 27.585937-34.121094-15.34375-39.816406-202.136718s2.503906 126.847656-26.863281 219.332031h-113.574219v-282.761719l25.777344-11.246094 39.835937-44.523437 19.683594-44.054687 24.171875-27.003907c22.046875 5.933594 41.675781 19.328125 55.132812 38.394531 32.730469 46.359376 72.296876 142.835938 82.476563 341.757813zm0 0" fill="#7aa544"/><g fill="#fccb5e"><path d="m231.003906 207.335938c0 7.9375-6.4375 14.371093-14.375 14.371093s-14.371094-6.433593-14.371094-14.371093 6.433594-14.371094 14.371094-14.371094 14.375 6.433594 14.375 14.371094zm0 0"/><path d="m231.003906 271.644531c0 7.9375-6.4375 14.371094-14.375 14.371094s-14.371094-6.433594-14.371094-14.371094 6.433594-14.371093 14.371094-14.371093 14.375 6.433593 14.375 14.371093zm0 0"/><path d="m231.003906 335.953125c0 7.9375-6.4375 14.371094-14.375 14.371094s-14.371094-6.433594-14.371094-14.371094 6.433594-14.375 14.371094-14.375 14.375 6.4375 14.375 14.375zm0 0"/></g><path d="m328.144531 8h-144.292969l-11.742187 25.773438 17.808594 44.054687 43.117187 52.492187 22.964844 7.964844 25.773438-11.246094 39.839843-44.523437 19.683594-44.054687zm0 0" fill="#7aa544"/><path d="m365.46875 11.457031c-4.675781 41.992188-22.066406 79.933594-50.839844 110.605469-24.804687 26.421875-49.578125 38.308594-50.617187 38.792969-2.539063 1.203125-5.277344 1.800781-8.015625 1.800781-2.734375 0-5.472656-.597656-8.011719-1.800781-1.039063-.484375-25.816406-12.371094-50.617187-38.792969-28.777344-30.671875-46.164063-68.613281-50.839844-110.605469 8.40625-2.277343 17.171875-3.460937 26.074218-3.460937h11.25c3.765626 33.371094 17.144532 62.699218 39.875 87.351562 12.230469 13.261719 24.527344 22.109375 32.269532 26.992188 7.734375-4.871094 20.03125-13.71875 32.273437-26.992188 22.71875-24.652344 36.105469-53.980468 39.871094-87.351562h11.25c8.90625.003906 17.671875 1.183594 26.078125 3.460937zm0 0" fill="#e95666"/><path d="m183.851562 8h-11.246093c-8.789063 0-17.589844 1.160156-26.078125 3.457031.472656 4.226563 1.078125 8.414063 1.804687 12.558594 8.667969-5.609375 18.179688-9.863281 28.195313-12.558594 2.488281-.675781 5.011718-1.238281 7.554687-1.71875-.074219-.582031-.164062-1.15625-.230469-1.738281zm0 0" fill="#d64655"/><path d="m38.710938 397.066406-29.792969-5.457031c-.5625 10.984375-1.035157 22.277344-1.410157 33.890625-.234374 7.199219 5.007813 13.714844 12.089844 15.015625l18.175782 3.328125c.273437-14.242188.585937-35.3125.9375-46.777344zm0 0" fill="#d64655"/><path d="m503.078125 391.609375c.5625 10.984375 1.035156 22.277344 1.410156 33.890625.238281 7.308594-4.898437 13.695312-12.089843 15.015625l-32.890626 6.027344c-7.945312 1.457031-15.582031-3.742188-17.144531-11.667969l-6.109375-31.027344zm0 0" fill="#e95666"/><path d="m216.628906 229.210938c12.0625 0 21.875-9.8125 21.875-21.875s-9.8125-21.871094-21.875-21.871094c-12.058594 0-21.871094 9.808594-21.871094 21.871094s9.8125 21.875 21.871094 21.875zm0-28.746094c3.792969 0 6.875 3.082031 6.875 6.871094 0 3.789062-3.082031 6.875-6.875 6.875-3.789062 0-6.871094-3.085938-6.871094-6.875 0-3.789063 3.082032-6.871094 6.871094-6.871094zm0 0"/><path d="m216.628906 293.515625c12.0625 0 21.875-9.8125 21.875-21.871094 0-12.058593-9.8125-21.875-21.875-21.875-12.058594 0-21.871094 9.8125-21.871094 21.875 0 12.058594 9.8125 21.871094 21.871094 21.871094zm0-28.742187c3.792969 0 6.875 3.082031 6.875 6.871093 0 3.789063-3.082031 6.871094-6.875 6.871094-3.789062 0-6.871094-3.082031-6.871094-6.871094 0-3.789062 3.082032-6.871093 6.871094-6.871093zm0 0"/><path d="m216.628906 357.824219c12.0625 0 21.875-9.8125 21.875-21.875 0-12.058594-9.8125-21.871094-21.875-21.871094-12.058594 0-21.871094 9.8125-21.871094 21.871094 0 12.0625 9.8125 21.875 21.871094 21.875zm0-28.746094c3.792969 0 6.875 3.085937 6.875 6.875s-3.082031 6.871094-6.875 6.871094c-3.789062 0-6.871094-3.082031-6.871094-6.871094s3.082032-6.875 6.871094-6.875zm0 0"/><path d="m511.988281 425.257812c-.371093-11.464843-.847656-22.914062-1.421875-34.035156-4.617187-90.277344-15.734375-167.566406-33.042968-229.714844-13.4375-48.257812-30.527344-87.28125-50.792969-115.984374-14.246094-20.175782-35.300781-34.84375-59.296875-41.304688h-.003906c-.003907 0-.007813-.003906-.011719-.003906-.003907 0-.003907 0-.007813 0-9.105468-2.464844-18.53125-3.714844-28.015625-3.714844h-166.789062c-9.488281 0-18.914063 1.25-28.019531 3.714844-.003907 0-.003907 0-.007813 0 0 0-.003906.003906-.007813.003906h-.003906s-.003906 0-.003906.003906c-23.996094 6.460938-45.050781 21.128906-59.292969 41.304688-20.265625 28.699218-37.355469 67.722656-50.792969 115.980468-17.308593 62.148438-28.425781 139.4375-33.046874 229.714844-.570313 11.113282-1.046876 22.566406-1.4179692 34.035156-.3593748 11.109376 7.3125002 20.632813 18.2343752 22.632813l32.890625 6.027344c1.332031.246093 2.6875.367187 4.03125.367187 10.597656 0 19.773437-7.554687 21.824219-17.960937l32.910156-167.078125c2.75 44.347656 9.367187 103.070312 25.019531 152.9375v21.289062c0 16.234375 13.207031 29.441406 29.441406 29.441406h183.269531c16.234376 0 29.441407-13.207031 29.441407-29.441406v-21.289062c15.652343-49.867188 22.269531-108.589844 25.023437-152.9375l32.90625 167.078125c2.050782 10.410156 11.230469 17.960937 21.824219 17.960937 1.34375 0 2.699219-.121094 4.03125-.367187l32.890625-6.027344c10.925781-2 18.59375-11.519531 18.238281-22.632813zm-193.261719-405.511718c-5.210937 26.269531-17.808593 50.824218-35.96875 70.515625-9.691406 10.507812-19.371093 18.09375-26.757812 23.117187-7.394531-5.03125-17.082031-12.621094-26.761719-23.117187-19.078125-20.683594-32.0625-46.875-36.738281-74.765625h126.996094c-.238282 1.421875-.488282 2.835937-.769532 4.25zm-256.453124 413.679687c-.667969 3.398438-3.65625 5.859375-7.105469 5.859375-.441407 0-.886719-.039062-1.324219-.121094l-32.894531-6.027343c-3.5625-.652344-6.0625-3.765625-5.945313-7.394531.273438-8.460938.605469-16.90625.988282-25.214844l50.921874 9.328125zm54.085937-239.167969c-3.867187-.414062-7.40625 2.191407-8.160156 6.007813l-38.386719 194.875-53.054688-9.722656c10.695313-194.167969 49.722657-287.273438 80.765626-331.242188 10.582031-14.992187 25.550781-26.441406 42.753906-32.851562.011718.058593.019531.117187.03125.175781.777344 4.964844 1.742187 9.902344 2.878906 14.796875 3.777344 16.214844 9.570312 32.003906 17.292969 46.757813 1.886719 3.605468 6.523437 5.054687 10.121093 3.175781 3.671876-1.917969 5.09375-6.449219 3.175782-10.121094-7.238282-13.851563-12.613282-28.539063-16.113282-43.765625-1.148437-5.003906-2.078124-10.050781-2.824218-15.128906-.074219-.605469 22.308594-2.605469 22.441406-1.71875.007812.050781.019531.105468.027344.15625 4.734375 31.675781 19.214844 61.261718 40.902344 84.777344 12.65625 13.722656 25.359374 22.9375 33.785156 28.253906 2.324218 1.464844 5.554687 1.546875 8 0 12.445312-7.847656 23.820312-17.441406 33.789062-28.253906 21.589844-23.425782 36.078125-53.277344 40.902344-84.78125.007812-.050782.019531-.101563.027344-.152344 2.226562 0 22.601562.628906 22.441406 1.71875-1.425781 9.71875-3.449219 19.488281-6.558594 28.816406-7.496094 24.003906-19.992187 46.347656-36.445312 65.355469-14.574219 16.835937-32.976563 33.191406-53.34375 42.6875-.054688.023437-.113282.042969-.167969.066406-3 1.359375-6.449219 1.351563-9.476563-.078125-.238281-.109375-24.3125-11.550781-48.328124-37.136719-4.710938-5.019531-9.175782-10.355469-13.304688-15.859375-2.636719-3.515625-7.242188-5.132812-11.0625-2.296875-4.789062 3.554688-2.789062 8.871094.203125 12.789063 4.863281 6.359375 10.085937 12.4375 15.660156 18.183594 19.449219 20.023437 38.402344 31.46875 46.449219 35.839843 2.429688 1.316407 5.011719 2.664063 7.71875 3.472657v244.492187h-100.542969c-26.949219-89.746094-24.925781-210.453125-24.898437-211.6875.074218-3.882813-2.832032-7.1875-6.699219-7.601563zm279.277344 0c-3.867188.417969-6.773438 3.71875-6.699219 7.605469.027344 1.230469 2.070312 121.890625-24.894531 211.6875h-29.664063c-4.140625 0-7.5 3.355469-7.5 7.5 0 4.140625 3.359375 7.5 7.5 7.5h27.695313v14.921875c0 7.964844-6.476563 14.441406-14.441407 14.441406h-183.269531c-7.960937 0-14.441406-6.476562-14.441406-14.441406v-14.921875h154.457031c4.144532 0 7.5-3.359375 7.5-7.5 0-4.144531-3.355468-7.5-7.5-7.5h-40.878906v-244.492187c1.261719-.375 2.5-.851563 3.695312-1.410156 44.582032-20.890626 79.789063-65.238282 95.742188-111.132813 3.96875-11.421875 6.914062-23.242187 8.777344-35.191406 17.203125 6.410156 32.175781 17.863281 42.757812 32.851562 31.042969 43.96875 70.070313 137.078125 80.761719 331.246094l-53.050781 9.71875-38.386719-194.875c-.75-3.816406-4.296875-6.421875-8.160156-6.007813zm95.410156 238.878907-32.890625 6.027343c-.441406.082032-.886719.121094-1.324219.121094-3.449219 0-6.4375-2.464844-7.109375-5.859375l-4.640625-23.570312 50.921875-9.328125c.386719 8.3125.71875 16.757812.992188 25.210937.117187 3.636719-2.386719 6.746094-5.949219 7.398438zm0 0"/></svg>