<svg height="511pt" viewBox="0 -2 511.99802 511" width="511pt" xmlns="http://www.w3.org/2000/svg"><path d="m504.488281 425.359375c.3125 8.933594-6.714843 16.402344-15.660156 16.632813l-40.742187 1.078124c-9.179688.246094-16.652344-7.230468-16.507813-16.398437 1.625-98.097656-29.757813-159.109375-29.757813-159.109375l-35.96875-92.355469 35.96875-100.859375c19.941407 18.121094 36.105469 40.1875 47.265626 64.996094 45.144531 100.375 53.761718 239.128906 55.402343 286.015625zm0 0" fill="#c38b6f"/><path d="m7.507812 425.359375c-.3125 8.933594 6.71875 16.402344 15.660157 16.632813l40.746093 1.078124c9.175782.246094 16.652344-7.230468 16.503907-16.398437-1.621094-98.097656 29.757812-159.109375 29.757812-159.109375l35.96875-92.355469-35.96875-100.859375c-19.9375 18.121094-36.105469 40.1875-47.265625 65-45.144531 100.371094-53.757812 239.125-55.402344 286.011719zm0 0" fill="#c38b6f"/><path d="m176.601562 8h158.792969v471.617188h-158.792969zm0 0" fill="#905b47"/><path d="m370.78125 51.160156-4.929688-2.980468-83.304687 278.625c-1.664063 46.945312-2.058594 100.226562-.644531 160.570312.175781 7.507812 6.324218 13.503906 13.832031 13.503906h81.308594c13.683593 0 24.777343-11.097656 24.777343-24.78125v-401.75c-9.527343-8.671875-19.917968-16.449218-31.039062-23.1875zm0 0" fill="#af785d"/><path d="m367.738281 193.191406h-50.722656c-4.695313 0-8.503906 3.808594-8.503906 8.503906v15.703126c0 4.699218 3.804687 8.503906 8.503906 8.503906h50.722656c4.695313 0 8.5-3.804688 8.5-8.503906v-15.703126c0-4.695312-3.804687-8.503906-8.5-8.503906zm0 0" fill="#c38b6f"/><path d="m374.867188 393.042969-45.902344-45.902344c-2.460938-2.460937-6.445313-2.460937-8.902344 0l-7.511719 7.511719c-4.976562 4.972656-4.976562 13.035156 0 18.007812l36.792969 36.796875c4.972656 4.972657 13.035156 4.972657 18.007812 0l7.515626-7.515625c2.457031-2.457031 2.457031-6.441406 0-8.898437zm0 0" fill="#c38b6f"/><path d="m53.164062 442.789062c-8.945312-.234374-15.964843-8.496093-15.65625-17.429687 1.722657-49.183594 6.71875-98.402344 15.304688-146.867187 10.90625-61.582032 25.777344-130.941407 65.636719-180.949219l-8.273438-23.195313c-19.949219 18.132813-36.203125 40.402344-47.265625 64.996094-9.167968 20.390625-16.832031 42.363281-23.234375 64.824219-18.464843 64.78125-27.359375 132.417969-31.167969 199.558593-.480468 8.476563-.792968 15.773438-1 21.632813-.3125 8.933594 6.71875 16.402344 15.660157 16.632813zm0 0" fill="#af785d"/><path d="m229.449219 326.804688-83.304688-278.625-4.925781 2.980468c-11.121094 6.738282-21.515625 14.515625-31.042969 23.1875v401.75c0 13.683594 11.09375 24.78125 24.78125 24.78125h81.304688c7.507812 0 13.65625-5.996094 13.832031-13.503906 1.414062-60.34375 1.019531-113.625-.644531-160.570312zm0 0" fill="#af785d"/><path d="m140.175781 74.347656c3.550781-3.230468 7.226563-6.339844 11.007813-9.316406l-5.039063-16.851562c-4.417969 2.675781-8.828125 5.359374-13.128906 8.226562-8.035156 5.417969-15.671875 11.421875-22.839844 17.941406v34.339844c8.644531-12.566406 18.71875-24.085938 30-34.339844zm0 0" fill="#905b47"/><path d="m144.257812 193.191406h50.726563c4.695313 0 8.5 3.808594 8.5 8.503906v15.703126c0 4.699218-3.804687 8.503906-8.5 8.503906h-50.726563c-4.695312 0-8.5-3.804688-8.5-8.503906v-15.703126c0-4.695312 3.804688-8.503906 8.5-8.503906zm0 0" fill="#c38b6f"/><path d="m137.132812 393.042969 45.902344-45.902344c2.457032-2.460937 6.441406-2.460937 8.898438 0l7.511718 7.511719c4.976563 4.972656 4.976563 13.035156 0 18.007812l-36.792968 36.796875c-4.972656 4.972657-13.035156 4.972657-18.007813 0l-7.515625-7.515625c-2.457031-2.457031-2.457031-6.441406.003906-8.898437zm0 0" fill="#c38b6f"/><path d="m375.863281 62.984375-25.304687 35.144531-25.71875-3.105468-9.929688-30.746094c11.023438-41.015625 20.484375-56.28125 20.484375-56.28125l37.894531 32.917968c6.433594 5.582032 7.542969 15.148438 2.574219 22.070313zm0 0" fill="#7aa544"/><path d="m369.75 148.640625c-23.207031 30.164063-67.390625 95.558594-87.203125 178.164063 4.707031-132.933594 19.589844-215.007813 32.363281-262.527344l35.648438 33.847656 16.46875 15.632812c9.703125 9.21875 10.886718 24.273438 2.722656 34.882813zm0 0" fill="#8bbe59"/><path d="m136.132812 62.984375 25.304688 35.144531 25.902344-1.589844 9.746094-32.261718c-11.023438-41.015625-20.480469-56.28125-20.480469-56.28125l-37.894531 32.917968c-6.4375 5.582032-7.546876 15.148438-2.578126 22.070313zm0 0" fill="#7aa544"/><path d="m142.25 148.640625c23.203125 30.164063 67.386719 95.558594 87.199219 178.164063-4.707031-132.933594-19.589844-215.007813-32.363281-262.527344l-35.648438 33.847656-16.46875 15.632812c-9.699219 9.21875-10.886719 24.273438-2.71875 34.882813zm0 0" fill="#8bbe59"/><path d="m334.265625 341.835938c-5.316406-5.316407-14.195313-5.308594-19.507813 0l-7.511718 7.511718c-7.886719 7.890625-7.886719 20.726563 0 28.617188 0 0 36.777344 36.777344 36.796875 36.792968 7.800781 7.804688 20.816406 7.796876 28.613281 0 0 0 7.507812-7.507812 7.511719-7.511718 5.320312-5.320313 5.320312-14.191406 0-19.507813 0 0-45.875-45.875-45.902344-45.902343zm27.785156 62.316406c-2.023437 2.023437-5.382812 2.019531-7.402343 0l-36.792969-36.792969c-2.042969-2.042969-2.042969-5.363281 0-7.402344l6.660156-6.660156 44.195313 44.195313s-6.648438 6.648437-6.660157 6.660156zm0 0"/><path d="m197.238281 341.835938c-5.320312-5.320313-14.191406-5.316407-19.507812 0 0 0-45.851563 45.855468-45.902344 45.902343-5.320313 5.320313-5.316406 14.191407 0 19.507813 0 0 7.507813 7.507812 7.511719 7.511718 7.796875 7.796876 20.828125 7.789063 28.617187 0l36.792969-36.792968c7.890625-7.890625 7.890625-20.726563 0-28.617188 0 0-7.503906-7.503906-7.511719-7.511718zm-3.09375 25.523437-36.792969 36.792969c-.992187.988281-2.304687 1.535156-3.703124 1.535156-1.398438 0-2.710938-.546875-3.699219-1.535156l-6.660157-6.660156 44.195313-44.195313 6.660156 6.660156c2.039063 2.039063 2.039063 5.359375 0 7.402344zm0 0"/><path d="m63.714844 450.570312c.214844.003907.429687.007813.644531.007813 13.03125 0 23.765625-11.046875 23.558594-24.027344-.820313-49.53125 7.085937-89.175781 13.859375-113.710937.300781-1.085938.601562-2.144532.898437-3.191406v166.449218c0 17.796875 14.480469 32.28125 32.28125 32.28125h81.304688c11.492187 0 21.0625-9.34375 21.332031-20.828125.003906-.144531.003906-.285156.007812-.433593h36.792969c.003907.144531.007813.289062.011719.433593.269531 11.484375 9.835938 20.828125 21.328125 20.828125h81.308594c17.796875 0 32.277343-14.484375 32.277343-32.28125v-166.332031c7.730469 27.019531 15.582032 67.082031 14.757813 116.785156-.214844 12.976563 10.585937 24.027344 23.5625 24.027344.210937 0 .429687-.003906.644531-.007813 0 0 40.691406-1.078124 40.738282-1.078124 12.921874-.34375 23.410156-11.488282 22.960937-24.394532-.410156-11.6875-1.066406-24.042968-1.957031-36.726562-.292969-4.132813-3.882813-7.25-8.007813-6.957032-4.132812.289063-7.246093 3.871094-6.957031 8.003907.878906 12.511719 1.527344 24.691406 1.929688 36.203125.160156 4.582031-3.585938 8.75-8.363282 8.875 0 0-40.648437 1.074218-40.742187 1.078125-4.863281.128906-8.886719-3.941407-8.8125-8.777344 1.507812-91.0625-24.605469-150.230469-29.753907-160.980469v-173.429687c13.597657 14.84375 24.636719 31.613281 32.925782 50.035156 30.890625 68.679687 44.421875 156.019531 50.332031 217.195313.398437 4.121093 4.0625 7.136718 8.1875 6.742187 4.121094-.394531 7.140625-4.0625 6.742187-8.183594-6.019531-62.296875-19.855468-151.367187-51.582031-221.90625-15.089843-33.542969-39.378906-62.660156-69.449219-83.796875-.234374-6.417968-3.042968-12.6875-8.269531-17.21875l-37.894531-32.917968c-1.355469-1.171876-3.125-1.835938-4.917969-1.835938 0 0-158.71875 0-158.789062 0-1.691407 0-3.699219.617188-4.917969 1.835938l-37.890625 32.914062c-5.226563 4.53125-8.039063 10.804688-8.273437 17.222656-34.585938 24.308594-59.582032 58.703125-75.371094 97.679688-1.554688 3.839844.292968 8.210937 4.132812 9.769531 3.839844 1.554687 8.210938-.296875 9.769532-4.136719 9.425781-23.265625 21.589843-44.804687 38.625-63.398437v173.429687c-5.152344 10.753906-31.261719 69.917969-29.757813 160.976563.082031 4.820312-3.957031 8.9375-8.808594 8.78125 0 0-40.679687-1.074219-40.746093-1.078125-4.699219-.125-8.523438-4.175782-8.359376-8.871094 1.449219-41.339844 8.042969-147.402344 37.921876-239.214844 1.28125-3.9375-.875-8.167968-4.8125-9.449218-3.9375-1.285157-8.171876.871093-9.453126 4.808593-30.46875 93.621094-37.179687 201.355469-38.648437 243.332031-.453125 12.925782 10.050781 24.054688 22.957031 24.390626zm152.546875 42.808594h-81.304688c-9.527343 0-17.28125-7.753906-17.28125-17.28125v-398.394531c4.023438-3.535156 8.210938-6.917969 12.527344-10.117187l21.320313 29.609374-11.71875 11.125c-10.574219 10.03125-13.484376 26.433594-6.921876 39.441407 2.308594 4.570312 5.773438 8.480469 8.792969 12.582031.035157.046875 11.1875 15.570312 17.523438 25.347656h-14.941407c-8.824218 0-16 7.179688-16 16.003906v15.703126c0 8.824218 7.175782 16.003906 16 16.003906h42.390626c8.183593 16.179687 16.089843 33.992187 22.929687 53.121094l12.40625 41.5c1.882813 53.109374.613281 106.070312.613281 159.175781-.082031 3.40625-2.921875 6.179687-6.335937 6.179687zm-37.523438-274.976562h-34.476562c-.554688 0-1.003907-.449219-1.003907-1.003906v-15.703126c0-.554687.449219-1.003906 1.003907-1.003906h24.300781c.53125.886719 7.40625 12.65625 10.175781 17.710938zm14.25-139.890625c.035157.128906.066407.261719.097657.394531 15.085937 62.046875 21.824218 126.085938 25.964843 189.699219.011719.144531.019531.292969.03125.441406-21.5-55.042969-50.582031-98.300781-69.359375-122.980469-6.253906-8.21875-7.644531-19.21875.410156-26.871094zm150.449219 122.179687h24.300781c.550781 0 1 .453125 1 1.003906v15.707032c0 .550781-.449219 1-1 1h-34.480469c.496094-.902344 7.203126-12.753906 10.179688-17.710938zm-50.492188 67.9375c4.046876-63.195312 10.6875-126.929687 25.683594-188.558594.097656-.398437.351563-1.4375.378906-1.558593 0 0 42.816407 40.648437 42.855469 40.683593 8.140625 7.730469 6.523438 18.832032.320313 26.992188-18.78125 24.703125-47.804688 67.90625-69.265625 122.859375.007812-.140625.019531-.28125.027343-.417969zm101.375-1.066406v208.535156c0 9.527344-7.75 17.28125-17.277343 17.28125h-81.308594c-3.410156 0-6.253906-2.773437-6.332031-6.179687-1.246094-52.960938-1.238282-106.230469.609375-159.175781l12.40625-41.5c6.839843-19.125 14.746093-36.941407 22.933593-53.121094h42.386719c8.824219 0 16-7.179688 16-16.003906v-15.703126c0-8.824218-7.175781-16.003906-16-16.003906h-14.941406c7.175781-11.070312 14.597656-22.207031 22.894531-32.476562 10.332032-13.417969 8.785156-33.226563-3.5-44.894532l-11.71875-11.125 21.105469-29.3125.214844-.296874c4.316406 3.199218 8.507812 6.582031 12.527343 10.117187zm-22.980468-212.894531c-.195313 1.390625-.707032 2.746093-1.5625 3.933593l-20.28125 28.167969-26.164063-24.839843c2.644531-9.496094 5.5625-18.917969 8.949219-28.179688 1.6875-4.617188 3.488281-9.195312 5.488281-13.6875.003907-.015625.011719-.03125.019531-.046875 0 0 30.566407 26.546875 30.589844 26.566406 2.332032 2.03125 3.367188 5.140625 2.960938 8.085938zm-47.960938-39.167969c-.035156.082031-.074218.175781-.109375.257812-6.503906 15.058594-11.328125 30.761719-15.601562 46.578126-22.144531 82.371093-29.957031 189.140624-32.617188 264.203124-.894531 26.851563-1.414062 53.707032-1.492187 80.578126-.054688 18.023437.066406 36.449218.359375 55.222656 0 .085937 0 .167968.003906.253906.046875 3.105469.101563 6.222656.160156 9.351562 0 .058594 0 .117188.003907.175782h-36.171876c0-.058594 0-.117188.003907-.175782.054687-3.128906.109375-6.246093.160156-9.351562 0-.085938.003906-.167969.003906-.253906.292969-18.773438.410157-37.199219.355469-55.226563-.078125-26.808593-1.488281-53.59375-1.488281-80.40625 0-.054687-.003907-.113281-.003907-.167969-2.65625-75.066406-10.472656-181.839843-32.613281-264.210937-4.246093-15.792969-9.109375-31.539063-15.601562-46.570313-.039063-.082031-.078125-.175781-.113281-.257812zm-179.75 31.078125c0-.003906 30.582032-26.5625 30.582032-26.5625.007812.019531.015624.039063.027343.058594 6.113281 13.457031 10.476563 27.640625 14.429688 41.855469l-26.164063 24.839843-20.277344-28.160156c-2.636718-3.671875-2.019531-9.0625 1.402344-12.03125zm0 0"/></svg>