<?xml version="1.0" encoding="iso-8859-1"?>
<!-- Generator: Adobe Illustrator 19.0.0, SVG Export Plug-In . SVG Version: 6.00 Build 0)  -->
<svg version="1.1" id="Capa_1" xmlns="http://www.w3.org/2000/svg" xmlns:xlink="http://www.w3.org/1999/xlink" x="0px" y="0px"
	 viewBox="0 0 511.999 511.999" style="enable-background:new 0 0 511.999 511.999;" xml:space="preserve">
<path style="fill:#A16B4E;" d="M52.333,403.878l18.075-18.075l-42.664-42.664L9.669,361.214c-2.897,2.897-2.897,7.593,0,10.489
	l32.174,32.174C44.74,406.775,49.437,406.775,52.333,403.878z"/>
<rect x="39.285" y="338.351" transform="matrix(-0.7071 0.7071 -0.7071 -0.7071 337.4293 597.2743)" style="opacity:0.1;enable-background:new    ;" width="11.461" height="60.34"/>
<path style="fill:#9BD3E0;" d="M485.179,324.256L368.521,207.244c-11.657-11.692-27.487-18.263-43.998-18.263l0,0
	c-9.753,0-15.313-11.271-9.254-18.913c11.803-14.887,18.941-34.268,18.941-55.466c0-46.962-35.016-85.032-78.211-85.032
	s-78.211,38.071-78.211,85.032c0,21.198,7.138,40.579,18.941,55.466c6.059,7.643,0.499,18.913-9.254,18.913l0,0
	c-16.51,0-32.341,6.571-43.998,18.263L26.821,324.256c-4.96,4.96-4.96,13.001,0,17.96l44.51,44.51c4.96,4.96,13.001,4.96,17.96,0
	l54.596-54.596c1.812-1.812,4.909-0.529,4.909,2.034v102.36c0,10.565,8.565,19.13,19.13,19.13h176.145
	c10.565,0,19.13-8.565,19.13-19.13V334.163c0-2.562,3.097-3.845,4.909-2.034l54.596,54.596c4.96,4.96,13.001,4.96,17.961,0
	l44.51-44.51C490.139,337.256,490.139,329.215,485.179,324.256z"/>
<ellipse style="opacity:0.1;enable-background:new    ;" cx="256.004" cy="121.021" rx="51.451" ry="62.361"/>
<g>
	<path style="fill:#A16B4E;" d="M459.667,403.878l-18.075-18.075l42.664-42.664l18.075,18.075c2.896,2.897,2.896,7.593,0,10.489
		l-32.174,32.174C467.26,406.775,462.564,406.775,459.667,403.878z"/>
	<path style="fill:#A16B4E;" d="M336.19,482.43H175.81c-3.784,0-6.852-3.068-6.852-6.852v-19.924h174.083v19.924
		C343.042,479.362,339.974,482.43,336.19,482.43z"/>
</g>
<path style="opacity:0.1;enable-background:new    ;" d="M355.583,418.071c-23.211,0-42.921-14.958-50.031-35.76
	c-2.795-8.177-10.311-13.797-18.953-13.797h-61.198c-8.642,0-16.158,5.619-18.953,13.797c-7.11,20.802-26.819,35.76-50.031,35.76
	c-2.588,0-5.131-0.195-7.62-0.554v19.006c0,10.565,8.565,19.13,19.13,19.13h176.145c10.565,0,19.13-8.565,19.13-19.13v-19.007
	C360.714,417.876,358.172,418.071,355.583,418.071z"/>
<g style="opacity:0.1;">
	<rect x="248.503" y="455.656" width="15" height="26.775"/>
	<rect x="217.853" y="455.656" width="15" height="26.775"/>
	<rect x="187.203" y="455.656" width="15" height="26.775"/>
	<rect x="279.154" y="455.656" width="15" height="26.775"/>
	<rect x="309.804" y="455.656" width="15" height="26.775"/>
</g>
<rect x="168.962" y="455.656" style="opacity:0.1;enable-background:new    ;" width="174.082" height="10.843"/>
<rect x="461.252" y="338.359" transform="matrix(0.7071 0.7071 -0.7071 0.7071 397.3654 -222.2665)" style="opacity:0.1;enable-background:new    ;" width="11.461" height="60.34"/>
<path d="M141.294,366.784c0,4.142,3.358,7.5,7.5,7.5c4.142,0,7.5-3.358,7.5-7.5v-32.62c0-4.212-2.515-7.975-6.406-9.586
	c-3.892-1.611-8.33-0.728-11.307,2.25l-54.597,54.596c-2.027,2.026-5.327,2.027-7.354,0l-44.51-44.51
	c-2.027-2.027-2.027-5.327,0.008-7.362l116.658-117.012c10.174-10.206,24.274-16.059,38.686-16.059
	c7.449,0,14.094-4.173,17.341-10.892c3.222-6.665,2.375-14.397-2.21-20.181c-11.167-14.085-17.318-32.128-17.318-50.807
	c0-8.128,1.141-16.132,3.391-23.79c1.168-3.974-1.107-8.142-5.081-9.31c-3.974-1.169-8.143,1.107-9.31,5.082
	c-2.654,9.032-4,18.459-4,28.019c0,22.046,7.303,43.4,20.564,60.125c1.432,1.807,0.798,3.633,0.459,4.335
	c-0.352,0.727-1.429,2.419-3.836,2.419c-18.368,0-36.34,7.46-49.31,20.468L21.515,318.952c-6.348,6.348-7.571,15.9-3.687,23.493
	L4.362,355.911c-5.816,5.816-5.816,15.28,0,21.096l32.174,32.174c2.908,2.908,6.728,4.362,10.548,4.362s7.64-1.454,10.548-4.362
	l13.465-13.465c2.882,1.475,6.044,2.221,9.21,2.22c5.172-0.001,10.346-1.97,14.283-5.907l46.703-46.702L141.294,366.784
	L141.294,366.784z M47.085,398.516l-32.057-32.057l12.713-12.713l32.057,32.057L47.085,398.516z M507.631,355.911l-13.463-13.463
	c1.448-2.818,2.227-5.953,2.227-9.212c0-5.396-2.102-10.468-5.908-14.275l-53.686-53.848c-2.926-2.934-7.675-2.94-10.607-0.016
	c-2.934,2.925-2.94,7.673-0.017,10.607l53.694,53.856c0.981,0.982,1.522,2.288,1.522,3.676c0,1.389-0.541,2.695-1.523,3.677
	l-0.923,0.923l0,0l0,0l-42.654,42.655c-0.003,0.003-0.007,0.006-0.01,0.009c-0.003,0.003-0.006,0.007-0.009,0.01l-0.913,0.913
	c-2.027,2.027-5.326,2.027-7.353,0l-54.597-54.596c-2.977-2.979-7.417-3.86-11.308-2.251c-3.891,1.612-6.405,5.375-6.405,9.586v76.4
	c-19.456,0.068-36.77-12.293-43.055-30.678c-3.858-11.287-14.326-18.871-26.049-18.871h-61.198
	c-11.723,0-22.191,7.584-26.049,18.871c-6.283,18.385-23.603,30.748-43.054,30.678v-13.233c0-4.142-3.358-7.5-7.5-7.5
	c-4.142,0-7.5,3.358-7.5,7.5v39.194c0,12.453,8.594,22.934,20.161,25.832v13.222c0,7.914,6.438,14.352,14.352,14.352h160.379
	c7.913,0,14.351-6.438,14.351-14.352v-13.221c11.567-2.898,20.161-13.378,20.161-25.832v-91.196l46.702,46.702
	c6.348,6.347,15.9,7.571,23.493,3.687l13.465,13.465c2.908,2.908,6.729,4.362,10.548,4.362c3.82,0,7.641-1.454,10.549-4.362
	l32.173-32.173c2.818-2.817,4.37-6.564,4.37-10.549C512,362.474,510.448,358.727,507.631,355.911z M335.538,474.93H176.455v-11.775
	h159.083v11.775H335.538z M355.699,436.523c0,6.413-5.217,11.63-11.63,11.63H167.924c-6.413,0-11.63-5.217-11.63-11.63v-10.954
	c0.04,0,0.08,0.002,0.12,0.002c25.821,0,48.78-16.41,57.128-40.835c1.784-5.217,6.548-8.723,11.856-8.723h61.198
	c5.308,0,10.072,3.505,11.856,8.723c8.349,24.424,31.307,40.835,57.129,40.835c0.04,0,0.08-0.002,0.119-0.002L355.699,436.523
	L355.699,436.523z M464.907,398.516l-12.712-12.713l32.056-32.057l12.713,12.713L464.907,398.516z M255.997,51.159
	c-32.507,0-58.954,31.34-58.954,69.863s26.446,69.863,58.954,69.863s58.954-31.34,58.954-69.863S288.504,51.159,255.997,51.159z
	 M255.997,175.885c-24.236,0-43.954-24.611-43.954-54.863s19.717-54.863,43.954-54.863c24.235,0,43.954,24.611,43.954,54.863
	S280.233,175.885,255.997,175.885z M188.664,70.637c3.436,2.315,8.097,1.405,10.41-2.031c13.3-19.747,34.58-31.537,56.923-31.537
	c38.99,0,70.71,34.78,70.71,77.532c0,18.677-6.15,36.721-17.317,50.807c-4.585,5.783-5.432,13.516-2.21,20.181
	c3.248,6.718,9.893,10.892,17.341,10.892c14.411,0,28.512,5.853,38.687,16.059l42.397,42.526c1.466,1.47,3.389,2.205,5.311,2.205
	c1.915,0,3.832-0.73,5.295-2.189c2.934-2.925,2.94-7.673,0.017-10.607l-42.397-42.526c-12.968-13.007-30.94-20.468-49.31-20.468
	c-2.406,0-3.483-1.692-3.835-2.419c-0.34-0.702-0.974-2.528,0.458-4.335c13.261-16.726,20.563-38.08,20.563-60.125
	c0-51.023-38.45-92.532-85.71-92.532c-27.341,0-53.273,14.265-69.365,38.159C184.318,63.663,185.228,68.323,188.664,70.637z
	 M213.192,197.006v48.183c0,4.142,3.358,7.5,7.5,7.5c4.142,0,7.5-3.358,7.5-7.5v-48.183c0-4.142-3.358-7.5-7.5-7.5
	C216.55,189.506,213.192,192.864,213.192,197.006z M283.802,197.006v48.183c0,4.142,3.357,7.5,7.5,7.5s7.5-3.358,7.5-7.5v-48.183
	c0-4.142-3.357-7.5-7.5-7.5S283.802,192.864,283.802,197.006z"/>
<g>
</g>
<g>
</g>
<g>
</g>
<g>
</g>
<g>
</g>
<g>
</g>
<g>
</g>
<g>
</g>
<g>
</g>
<g>
</g>
<g>
</g>
<g>
</g>
<g>
</g>
<g>
</g>
<g>
</g>
</svg>
