<svg height="512pt" viewBox="-26 0 512 512.00089" width="512pt" xmlns="http://www.w3.org/2000/svg"><path d="m76.980469 7.492188-5.824219 51.445312 62.535156 20.023438 53.738282-20.023438 30.632812-28.617188v-22.828124zm0 0" fill="#b1785d"/><path d="m383.960938 7.492188 5.824218 51.445312-62.535156 20.023438-53.738281-20.023438-30.632813-28.617188v-22.828124zm0 0" fill="#b1785d"/><path d="m121.339844 98.691406-5.191406-39.753906h-44.992188l-6.902344 60.917969c1.503906-.503907 2.984375-1.058594 4.445313-1.644531zm0 0" fill="#96ccec"/><path d="m396.683594 119.855469-6.898438-60.917969h-44.992187l-2.78125 37.417969 42.929687 18.453125c3.738282 1.984375 7.660156 3.679687 11.742188 5.046875zm0 0" fill="#96ccec"/><path d="m432.648438 437.414062-38.761719 33.402344-48.957031-14.839844-97.753907-309.515624h-33.410156l-97.753906 309.515624-48.957031 14.839844-38.761719-33.402344 35.960937-317.558593c27.0625-9.050781 47.191406-32.378907 51.894532-60.917969v-51.445312h30.445312v51.445312h40.835938l30.632812-28.617188v-22.828124h24.816406v22.828124l30.632813 28.617188h40.835937v-51.445312h30.441406v51.445312c4.707032 28.539062 24.835938 51.867188 51.894532 60.917969zm0 0" fill="#75b8db"/><path d="m213.761719 78.960938v67.496093h33.417969s11.910156-15.878906 11.910156-67.496093zm0 0" fill="#96ccec"/><path d="m263.910156 7.492188h-66.878906c-11.058594 0-20.023438 8.964843-20.023438 20.019531v31.425781c0 11.058594 8.964844 20.023438 20.023438 20.023438h66.878906c11.058594 0 20.023438-8.964844 20.023438-20.023438v-31.425781c0-11.054688-8.964844-20.019531-20.023438-20.019531zm0 0" fill="#fed994"/><path d="m207.640625 30.320312h45.660156v25.808594h-45.660156zm0 0" fill="#b1785d"/><path d="m453.164062 469.808594-4.671874-22.078125c-1.527344-7.222657-8.625-11.839844-15.847657-10.3125l-87.71875 18.558593c-7.222656 1.527344-11.839843 8.625-10.3125 15.847657l4.671875 22.078125c1.527344 7.226562 8.625 11.84375 15.847656 10.3125l87.71875-18.554688c7.222657-1.527344 11.839844-8.625 10.3125-15.851562zm0 0" fill="#96ccec"/><path d="m7.777344 469.808594 4.671875-22.078125c1.527343-7.222657 8.625-11.839844 15.847656-10.3125l87.71875 18.558593c7.222656 1.527344 11.84375 8.625 10.3125 15.847657l-4.671875 22.078125c-1.527344 7.226562-8.621094 11.84375-15.847656 10.3125l-87.71875-18.554688c-7.222656-1.527344-11.839844-8.625-10.3125-15.851562zm0 0" fill="#96ccec"/><path d="m91.855469 205.75 1.574219-13.914062c.46875-4.113282-2.492188-7.828126-6.605469-8.296876-4.117188-.464843-7.832031 2.496094-8.296875 6.609376l-1.578125 13.910156c-.464844 4.117187 2.496093 7.832031 6.609375 8.296875.289062.035156.570312.050781.855468.050781 3.761719 0 7.007813-2.828125 7.441407-6.65625zm0 0"/><path d="m96.246094 166.996094 1.574218-13.914063c.464844-4.113281-2.492187-7.828125-6.609374-8.296875-4.121094-.464844-7.828126 2.492188-8.296876 6.609375l-1.574218 13.914063c-.464844 4.113281 2.492187 7.828125 6.609375 8.292968.285156.035157.570312.050782.851562.050782 3.765625 0 7.011719-2.828125 7.445313-6.65625zm0 0"/><path d="m56.585938 383.917969-1.574219 13.910156c-.46875 4.117187 2.492187 7.832031 6.609375 8.296875.285156.035156.570312.046875.851562.046875 3.765625 0 7.011719-2.828125 7.441406-6.65625l1.578126-13.910156c.464843-4.117188-2.496094-7.832031-6.609376-8.296875-4.117187-.464844-7.832031 2.492187-8.296874 6.609375zm0 0"/><path d="m78.691406 322.011719 1.574219-13.914063c.46875-4.117187-2.492187-7.832031-6.609375-8.296875-4.113281-.464843-7.828125 2.492188-8.292969 6.609375l-1.578125 13.910156c-.464844 4.117188 2.496094 7.832032 6.609375 8.296876.289063.035156.570313.050781.855469.050781 3.761719 0 7.007812-2.828125 7.441406-6.65625zm0 0"/><path d="m74.304688 360.765625 1.574218-13.914063c.464844-4.117187-2.492187-7.828124-6.609375-8.296874-4.117187-.464844-7.828125 2.496093-8.296875 6.609374l-1.574218 13.910157c-.464844 4.117187 2.492187 7.832031 6.609374 8.296875.289063.035156.570313.050781.855469.050781 3.761719 0 7.007813-2.828125 7.441407-6.65625zm0 0"/><path d="m87.46875 244.503906 1.574219-13.914062c.464843-4.113282-2.492188-7.828125-6.609375-8.296875-4.113282-.460938-7.828125 2.496093-8.292969 6.609375l-1.578125 13.914062c-.464844 4.113282 2.492188 7.828125 6.609375 8.296875.289063.03125.570313.046875.851563.046875 3.765624 0 7.011718-2.828125 7.445312-6.65625zm0 0"/><path d="m83.082031 283.257812 1.574219-13.914062c.464844-4.117188-2.492188-7.828125-6.609375-8.296875-4.117187-.464844-7.832031 2.492187-8.296875 6.609375l-1.574219 13.910156c-.46875 4.117188 2.492188 7.832032 6.609375 8.296875.285156.035157.570313.050781.851563.050781 3.765625 0 7.011719-2.828124 7.445312-6.65625zm0 0"/><path d="m364.695312 166.996094c.433594 3.828125 3.679688 6.65625 7.441407 6.65625.285156 0 .566406-.015625.855469-.046875 4.117187-.46875 7.074218-4.183594 6.609374-8.296875l-1.578124-13.914063c-.464844-4.113281-4.175782-7.074219-8.296876-6.605469-4.113281.464844-7.074218 4.179688-6.605468 8.296876zm0 0"/><path d="m378.503906 222.292969c-4.113281.46875-7.074218 4.183593-6.609375 8.296875l1.578125 13.914062c.433594 3.828125 3.679688 6.65625 7.441406 6.65625.28125 0 .566407-.015625.855469-.046875 4.113281-.46875 7.074219-4.183593 6.605469-8.296875l-1.574219-13.914062c-.464843-4.117188-4.179687-7.074219-8.296875-6.609375zm0 0"/><path d="m374.117188 183.539062c-4.117188.46875-7.074219 4.183594-6.609376 8.296876l1.574219 13.914062c.433594 3.828125 3.679688 6.65625 7.445313 6.65625.28125 0 .566406-.015625.851562-.046875 4.117188-.46875 7.074219-4.183594 6.609375-8.296875l-1.574219-13.914062c-.464843-4.113282-4.179687-7.074219-8.296874-6.609376zm0 0"/><path d="m382.894531 261.046875c-4.117187.46875-7.074219 4.179687-6.609375 8.296875l1.574219 13.914062c.433594 3.828126 3.679687 6.65625 7.445313 6.65625.28125 0 .5625-.015624.851562-.050781 4.117188-.464843 7.074219-4.179687 6.609375-8.296875l-1.574219-13.910156c-.46875-4.117188-4.179687-7.074219-8.296875-6.609375zm0 0"/><path d="m396.058594 377.308594c-4.117188.464844-7.074219 4.183594-6.609375 8.296875l1.574219 13.910156c.433593 3.832031 3.679687 6.660156 7.445312 6.660156.28125 0 .566406-.015625.851562-.050781 4.117188-.464844 7.074219-4.179688 6.609376-8.296875l-1.574219-13.910156c-.46875-4.117188-4.179688-7.074219-8.296875-6.609375zm0 0"/><path d="m391.671875 338.554688c-4.117187.46875-7.078125 4.179687-6.609375 8.296874l1.574219 13.914063c.433593 3.828125 3.679687 6.65625 7.441406 6.65625.28125 0 .566406-.015625.855469-.050781 4.113281-.464844 7.074218-4.179688 6.609375-8.296875l-1.578125-13.910157c-.464844-4.113281-4.175782-7.074218-8.292969-6.609374zm0 0"/><path d="m387.28125 299.800781c-4.117188.464844-7.074219 4.183594-6.609375 8.296875l1.574219 13.914063c.4375 3.828125 3.679687 6.65625 7.445312 6.65625.28125 0 .566406-.015625.851563-.050781 4.117187-.464844 7.078125-4.179688 6.609375-8.296876l-1.574219-13.910156c-.464844-4.117187-4.179687-7.074218-8.296875-6.609375zm0 0"/><path d="m260.800781 30.332031c0-4.144531-3.359375-7.5-7.5-7.5h-45.660156c-4.144531 0-7.5 3.355469-7.5 7.5v25.808594c0 4.140625 3.355469 7.5 7.5 7.5h45.660156c4.140625 0 7.5-3.359375 7.5-7.5zm-15 18.308594h-30.660156v-10.808594h30.660156zm0 0"/><path d="m76.980469 0c-3.816407 0-7.023438 2.863281-7.453125 6.65625 0 0-5.824219 51.445312-5.828125 51.453125l-6.898438 60.910156-35.21875 311.003907c-8.082031 1.574218-14.71875 7.886718-16.472656 16.164062 0 0-4.667969 22.0625-4.671875 22.078125-2.351562 11.125 5.007812 22.394531 16.101562 24.742187l87.71875 18.554688c11.09375 2.347656 22.386719-4.996094 24.738282-16.097656l4.667968-22.078125c1.789063-8.449219-1.832031-16.804688-8.503906-21.457031l12.074219-38.230469c1.246094-3.949219-.945313-8.164063-4.894531-9.410157-3.949219-1.25-8.164063.941407-9.410156 4.890626l-12.019532 38.058593-45.3125-9.585937 1.503906-13.292969c.46875-4.113281-2.492187-7.828125-6.605468-8.292969-4.117188-.46875-7.832032 2.492188-8.296875 6.609375l-1.34375 11.859375-14.34375-3.035156 34.675781-306.1875c.167969-.066406.332031-.140625.5-.207031 24.71875-9.96875 43.753906-31.867188 50.339844-57.675781.6875-2.683594 1.539062-5.480469 1.613281-8.261719.003906-.074219.011719-.144531.011719-.21875v-43.949219h15.441406v43.949219c0 4.140625 3.359375 7.5 7.5 7.5h23.953125c.019531.066406.046875.128906.066406.195312 3.386719 11.601563 14.335938 19.824219 26.417969 19.824219h9.230469v58.851562l-74.339844 235.390626c-1.25 3.949218.941406 8.164062 4.890625 9.410156 3.953125 1.25 8.164062-.941406 9.414062-4.890625l73.035157-231.261719h22.417969l94.101562 297.960938c-6.671875 4.652343-10.292969 13.007812-8.503906 21.457031 0 0 4.664062 22.054687 4.667968 22.078125 2.339844 11.054687 13.707032 18.429687 24.742188 16.097656 0 0 87.648438-18.542969 87.714844-18.554688 11.113281-2.351562 18.453125-13.628906 16.101562-24.738281l-4.671875-22.078125c-1.75-8.28125-8.390625-14.589844-16.472656-16.164062l-47.949219-423.371094c-.429687-3.792969-3.636718-6.65625-7.449218-6.65625zm37.480469 463.324219c3.167968.667969 5.199218 3.789062 4.527343 6.957031 0 0-4.660156 22.042969-4.667969 22.078125-.660156 3.121094-3.851562 5.183594-6.960937 4.527344 0 0-87.550781-18.519531-87.714844-18.554688-3.121093-.660156-5.1875-3.847656-4.53125-6.960937 0 0 4.664063-22.035156 4.671875-22.078125.65625-3.113281 3.855469-5.1875 6.960938-4.527344zm-7.855469-396.476563c-2.011719 6.582032-4.980469 12.855469-8.820313 18.570313-6.1875 9.199219-14.570312 16.878906-24.277344 22.230469-.113281.0625-.226562.128906-.339843.1875l4.6875-41.386719h28.875c-.042969.132812-.082031.265625-.125.398437zm2.042969-15.398437h-29.097657l4.128907-36.449219h24.96875zm63.746093-36.191407c-1.882812 3.773438-2.878906 7.996094-2.886719 12.214844v.050782 23.921874h-15.414062v-36.445312h18.429688c-.042969.085938-.085938.171875-.128907.257812zm261.804688 429.507813c3.121093-.660156 6.292969 1.398437 6.957031 4.527344 0 0 4.65625 22.011719 4.671875 22.078125.664063 3.144531-1.398437 6.296875-4.53125 6.957031l-87.714844 18.558594c-3.125.660156-6.296875-1.398438-6.960937-4.527344l-4.667969-22.078125c-.671875-3.167969 1.359375-6.289062 4.527344-6.960938 0 .003907 87.714843-18.554687 87.71875-18.554687zm-46.425781-336.929687c-.113282-.0625-.226563-.128907-.34375-.191407-14.46875-7.96875-25.832032-21.164062-31.667969-36.609375-.539063-1.429687-1.09375-3.050781-1.550781-4.585937h28.875zm-35.484376-92.835938h24.972657l4.128906 36.449219h-29.101563zm-45.441406 0v36.445312h-15.414062v-23.921874c0-4.242188-1.007813-8.472657-2.894532-12.269532-.042968-.082031-.082031-.171875-.125-.253906zm-109.816406 56.46875c-6.746094 0-12.523438-5.769531-12.523438-12.523438 0 0 0-31.394531 0-31.421874 0-6.796876 5.738282-12.523438 12.523438-12.523438h66.878906c6.902344 0 12.519532 5.617188 12.519532 12.523438v31.421874c0 6.765626-5.75 12.519532-12.515626 12.523438-1.609374 0-66.882812 0-66.882812 0zm45.683594 67.5h-21.453125v-52.5h30.238281c-.753906 30.808594-6.054688 46.425781-8.785156 52.5zm12.617187 8.417969c3.617188-7.007813 10.347657-24.804688 11.167969-61.042969 2.105469-.199219 4.175781-.644531 6.179688-1.316406 8.273437-2.769532 15.289062-10.003906 17.714843-18.578125h23.953125c4.140625 0 7.5-3.359375 7.5-7.5v-43.949219h15.441406v43.800781c0 5.042969 2.023438 10.734375 3.671876 15.4375 5.746093 16.417969 16.453124 30.894531 30.570312 41.074219 5.625 4.058594 11.777344 7.433594 18.222656 10l34.675782 306.1875-14.34375 3.035156-1.34375-11.863281c-.464844-4.117187-4.175782-7.074219-8.292969-6.609375-4.117188.464844-7.078125 4.179688-6.609375 8.296875l1.503906 13.292969-45.3125 9.585937zm0 0"/></svg>