<?xml version="1.0" encoding="iso-8859-1"?>
<!-- Generator: Adobe Illustrator 19.0.0, SVG Export Plug-In . SVG Version: 6.00 Build 0)  -->
<svg version="1.1" id="Capa_1" xmlns="http://www.w3.org/2000/svg" xmlns:xlink="http://www.w3.org/1999/xlink" x="0px" y="0px"
	 viewBox="0 0 512 512" style="enable-background:new 0 0 512 512;" xml:space="preserve">
<path id="SVGCleanerId_0" style="fill:#FC8063;" d="M483.236,339.031L356.123,211.918c-3.648-3.648-7.057-7.521-10.395-11.455
	c-4.665-5.499-10.229-10.203-16.459-13.892c-3.324-1.968-4.098-6.442-1.515-9.315c17.481-19.44,28.247-45.957,28.247-75.193
	c0-59.63-44.772-94.563-100-94.563s-100,34.933-100,94.563c0,29.235,10.766,55.752,28.246,75.193
	c2.583,2.873,1.809,7.347-1.515,9.315c-6.23,3.689-11.794,8.393-16.459,13.892c-3.337,3.934-6.746,7.807-10.395,11.455
	L28.766,339.031c-4.566,4.566-4.566,11.969,0,16.535l41.731,41.731c4.566,4.566,11.969,4.566,16.535,0l59.487-59.487l-6.681,147.29
	c-0.479,10.569,7.96,19.4,18.54,19.4h195.246c10.58,0,19.019-8.831,18.54-19.4l-6.681-147.291l59.487,59.487
	c4.566,4.566,11.969,4.566,16.534,0l41.731-41.731C487.802,351,487.802,343.597,483.236,339.031z"/>
<g>
	<path id="SVGCleanerId_0_1_" style="fill:#FC8063;" d="M483.236,339.031L356.123,211.918c-3.648-3.648-7.057-7.521-10.395-11.455
		c-4.665-5.499-10.229-10.203-16.459-13.892c-3.324-1.968-4.098-6.442-1.515-9.315c17.481-19.44,28.247-45.957,28.247-75.193
		c0-59.63-44.772-94.563-100-94.563s-100,34.933-100,94.563c0,29.235,10.766,55.752,28.246,75.193
		c2.583,2.873,1.809,7.347-1.515,9.315c-6.23,3.689-11.794,8.393-16.459,13.892c-3.337,3.934-6.746,7.807-10.395,11.455
		L28.766,339.031c-4.566,4.566-4.566,11.969,0,16.535l41.731,41.731c4.566,4.566,11.969,4.566,16.535,0l59.487-59.487l-6.681,147.29
		c-0.479,10.569,7.96,19.4,18.54,19.4h195.246c10.58,0,19.019-8.831,18.54-19.4l-6.681-147.291l59.487,59.487
		c4.566,4.566,11.969,4.566,16.534,0l41.731-41.731C487.802,351,487.802,343.597,483.236,339.031z"/>
</g>
<path style="opacity:0.1;enable-background:new    ;" d="M145.674,356.416L139.838,485.1c-0.479,10.569,7.96,19.4,18.54,19.4
	h195.246c10.58,0,19.019-8.831,18.54-19.4l-5.837-128.685L145.674,356.416L145.674,356.416z"/>
<path style="fill:#F2BA5B;" d="M316.052,104.741c0-35.809-26.886-56.787-60.051-56.787s-60.051,20.978-60.051,56.787
	s26.886,64.838,60.051,64.838S316.052,140.551,316.052,104.741z"/>
<g>
	<path style="fill:#FAD97E;" d="M84.797,328.19l-10.312,10.312c-3.372,3.372-8.84,3.372-12.213,0l-21.327-21.327
		c-3.373-3.372-3.373-8.84,0-12.213l10.312-10.312c3.373-3.372,8.84-3.372,12.213,0l21.327,21.327
		C88.17,319.35,88.17,324.818,84.797,328.19z"/>
	<path style="fill:#FAD97E;" d="M427.205,328.19l10.312,10.312c3.372,3.372,8.84,3.372,12.213,0l21.327-21.327
		c3.372-3.372,3.372-8.84,0-12.213l-10.312-10.312c-3.372-3.372-8.84-3.372-12.213,0l-21.327,21.327
		C423.833,319.35,423.833,324.818,427.205,328.19z"/>
	<path style="fill:#FAD97E;" d="M187.803,449.975c-0.854,0-1.722-0.147-2.57-0.456c-3.891-1.42-5.895-5.726-4.475-9.616
		l20.536-56.284c1.42-3.892,5.727-5.894,9.617-4.476c3.891,1.42,5.895,5.726,4.475,9.616l-20.536,56.284
		C193.74,448.086,190.865,449.975,187.803,449.975z"/>
	<path style="fill:#FAD97E;" d="M324.198,449.975c-3.061,0-5.936-1.889-7.046-4.932l-20.536-56.284
		c-1.419-3.891,0.584-8.196,4.475-9.616c3.891-1.421,8.196,0.584,9.617,4.476l20.536,56.284c1.419,3.891-0.584,8.196-4.475,9.616
		C325.92,449.828,325.052,449.975,324.198,449.975z"/>
</g>
<path d="M187.183,40.946C203.963,24.215,228.402,15,256.001,15c25.785,0,49.122,8.172,65.71,23.01
	c17.526,15.677,26.79,37.826,26.79,64.054c0,26.378-9.348,51.301-26.323,70.178c-2.716,3.021-3.921,7.057-3.306,11.072
	c0.623,4.066,3.021,7.606,6.578,9.712c5.512,3.264,10.411,7.398,14.56,12.289c2.854,3.364,6.662,7.758,10.811,11.907l41.958,41.958
	c1.464,1.464,3.384,2.196,5.303,2.196s3.839-0.732,5.303-2.196c2.929-2.93,2.929-7.678,0-10.607l-41.958-41.958
	c-3.764-3.764-7.309-7.857-9.978-11.003c-4.877-5.749-10.577-10.671-16.96-14.645c18.724-21.47,29.013-49.416,29.013-78.902
	c0-30.616-10.993-56.631-31.789-75.233C312.369,9.528,285.481,0,256.001,0c-31.596,0-59.797,10.769-79.409,30.323
	c-2.933,2.925-2.94,7.674-0.016,10.607C179.502,43.863,184.249,43.869,187.183,40.946z M256.001,40.455
	c-39.773,0-67.551,26.436-67.551,64.286c0,39.888,30.303,72.339,67.551,72.339s67.551-32.451,67.551-72.339
	C323.552,66.891,295.774,40.455,256.001,40.455z M256.001,162.08c-28.977,0-52.551-25.722-52.551-57.339
	c0-34.047,26.394-49.286,52.551-49.286c36.302,0,52.551,24.754,52.551,49.286C308.552,136.358,284.978,162.08,256.001,162.08z
	 M200.223,216.893v46.765c0,4.143,3.358,7.5,7.5,7.5s7.5-3.357,7.5-7.5v-46.765c0-4.143-3.358-7.5-7.5-7.5
	C203.581,209.393,200.223,212.75,200.223,216.893z M296.779,216.893v46.765c0,4.143,3.358,7.5,7.5,7.5s7.5-3.357,7.5-7.5v-46.765
	c0-4.143-3.358-7.5-7.5-7.5S296.779,212.75,296.779,216.893z M488.539,333.728l-11.737-11.737
	c5.828-6.321,5.693-16.196-0.441-22.332l-10.313-10.311c-6.134-6.134-16.009-6.268-22.33-0.441l-18.369-18.369
	c-2.929-2.928-7.678-2.928-10.606,0c-2.929,2.93-2.929,7.678,0,10.607l18.345,18.345l-11.185,11.185
	c-3.048,3.048-4.727,7.1-4.727,11.41s1.678,8.362,4.727,11.41l0,0l10.311,10.311c3.048,3.048,7.1,4.728,11.41,4.728
	s8.363-1.68,11.41-4.727l11.185-11.185l11.714,11.714c0.792,0.791,1.228,1.844,1.228,2.963c0,1.12-0.436,2.173-1.228,2.964
	l-41.731,41.732c-1.634,1.635-4.294,1.636-5.928,0l-59.487-59.487c-2.189-2.189-5.498-2.81-8.33-1.559
	c-2.833,1.249-4.606,4.11-4.466,7.202l0.488,10.767h-94.978V216.893c0-4.143-3.358-7.5-7.5-7.5c-4.142,0-7.5,3.357-7.5,7.5v132.023
	h-94.978l0.488-10.767c0.14-3.093-1.634-5.953-4.466-7.202c-2.833-1.251-6.141-0.628-8.33,1.559l-59.487,59.487
	c-1.634,1.635-4.293,1.636-5.928,0l-41.731-41.732c-0.792-0.791-1.228-1.844-1.228-2.963c0-1.12,0.436-2.173,1.228-2.964
	l11.714-11.714l11.184,11.184c3.048,3.048,7.1,4.728,11.411,4.728c4.31,0,8.362-1.68,11.409-4.727l10.312-10.312
	c3.048-3.048,4.727-7.1,4.727-11.41c0-4.311-1.678-8.362-4.726-11.41l-11.185-11.185l82.267-82.267
	c4.147-4.146,7.956-8.541,10.811-11.907c4.149-4.891,9.048-9.026,14.56-12.289c3.558-2.105,5.955-5.646,6.578-9.712
	c0.615-4.016-0.59-8.051-3.306-11.072c-16.975-18.878-26.323-43.801-26.323-70.178c0-13.793,2.559-26.504,7.607-37.782
	c1.692-3.78-0.001-8.217-3.782-9.909c-3.782-1.693-8.218,0-9.91,3.782c-5.916,13.218-8.915,27.991-8.915,43.909
	c0,29.485,10.29,57.432,29.013,78.902c-6.383,3.975-12.083,8.895-16.962,14.645c-2.669,3.148-6.216,7.242-9.977,11.003
	l-82.292,82.291c-6.321-5.828-16.195-5.691-22.331,0.441l-10.312,10.314c-6.133,6.135-6.268,16.01-0.44,22.331l-11.737,11.737
	c-3.625,3.625-5.621,8.444-5.621,13.571c0,5.126,1.996,9.945,5.621,13.57l41.731,41.731c7.483,7.482,19.659,7.48,27.141,0
	l45.816-45.816l-3.462,76.339c-0.188,4.138,3.015,7.645,7.152,7.832c0.116,0.005,0.231,0.008,0.346,0.008
	c3.985,0,7.304-3.139,7.486-7.16l3.17-69.887h95.657V497h-90.123c-3.049,0-5.888-1.214-7.995-3.418
	c-2.107-2.205-3.191-5.096-3.053-8.142l0.787-17.357c0.188-4.138-3.015-7.645-7.152-7.832c-4.125-0.216-7.645,3.015-7.832,7.152
	l-0.787,17.357c-0.326,7.177,2.229,13.99,7.192,19.185c4.964,5.194,11.655,8.055,18.839,8.055h195.246
	c7.185,0,13.875-2.86,18.839-8.055c4.964-5.194,7.518-12.008,7.192-19.185l-5.805-127.977l45.816,45.816
	c7.483,7.482,19.659,7.48,27.141,0l41.731-41.731c3.625-3.625,5.621-8.444,5.621-13.571
	C494.16,342.172,492.164,337.353,488.539,333.728z M465.754,311.871l-21.329,21.328c-0.274,0.274-0.587,0.333-0.802,0.333
	c-0.214,0-0.527-0.059-0.803-0.334l-10.312-10.312l0,0c-0.274-0.274-0.332-0.588-0.332-0.803s0.058-0.528,0.332-0.803l21.327-21.327
	c0.222-0.222,0.513-0.332,0.804-0.332s0.582,0.11,0.803,0.332l10.311,10.31C466.196,310.708,466.197,311.429,465.754,311.871z
	 M46.248,310.266l10.312-10.311c0.222-0.222,0.513-0.332,0.804-0.332s0.582,0.11,0.803,0.332l21.328,21.327
	c0.274,0.274,0.332,0.588,0.332,0.803s-0.058,0.528-0.332,0.803h-0.001l-10.313,10.311c-0.274,0.274-0.587,0.333-0.802,0.333
	c-0.215,0-0.528-0.059-0.803-0.334l-21.328-21.327C45.805,311.429,45.806,310.708,46.248,310.266z M361.619,493.582
	c-2.106,2.204-4.946,3.418-7.995,3.418h-90.123V363.916h95.658l5.512,121.524C364.81,488.486,363.726,491.377,361.619,493.582z"/>
<g>
</g>
<g>
</g>
<g>
</g>
<g>
</g>
<g>
</g>
<g>
</g>
<g>
</g>
<g>
</g>
<g>
</g>
<g>
</g>
<g>
</g>
<g>
</g>
<g>
</g>
<g>
</g>
<g>
</g>
</svg>
