<svg id="Capa_1" enable-background="new 0 0 512 512" height="512" viewBox="0 0 512 512" width="512" xmlns="http://www.w3.org/2000/svg"><g><ellipse cx="256" cy="283.073" fill="#e7c7af" rx="248.5" ry="112.987"/><path d="m183.194 175.018c-101.716 14.151-175.694 57.173-175.694 108.055 0 52.77 79.568 97.087 187.129 109.511-22.967-22.767-23.806-56.862-11.435-77.986z" fill="#e0b799"/><path d="m256 321.111c73.609 0 124.571-18.376 144.531-31.643 4.793-3.186 7.333-8.862 6.485-14.555-18.921-127.066-96.24-179.093-139.214-151.943-7.218 4.56-16.386 4.56-23.604 0-42.974-27.15-120.293 24.877-139.214 151.942-.848 5.693 1.692 11.369 6.485 14.555 19.96 13.268 70.922 31.644 144.531 31.644z" fill="#e0b799"/><path d="m186.539 125.455c-34.902 19.67-69.697 69.824-81.554 149.457-.848 5.693 1.691 11.369 6.485 14.555 12.476 8.293 37.064 18.582 71.724 25.131-4.317-19.219-35.411-136.821 3.345-189.143z" fill="#d99a84"/><path d="m407.017 274.926c-1.703-11.435-3.879-22.261-6.46-32.478-19.935 13.269-70.906 31.665-144.558 31.665s-124.623-18.396-144.558-31.665c-2.581 10.217-4.757 21.043-6.46 32.478-.847 5.688 1.696 11.356 6.485 14.54 19.959 13.268 70.921 31.644 144.532 31.644s124.574-18.377 144.532-31.644c4.792-3.183 7.334-8.851 6.487-14.54z" fill="#d99a84"/><path d="m327.454 325.04c13.839-2.469 26.294-5.544 37.234-8.943 5.865-1.822 9.302-7.887 7.893-13.865l-9.593-40.716c-1.516-6.432-8.04-10.331-14.425-8.625-9.058 2.42-19.223 4.637-30.459 6.449-6.219 1.003-10.521 6.768-9.734 13.018l5.363 42.619c.838 6.667 7.105 11.243 13.721 10.063z" fill="#d2896f"/><g><g fill="#fff"><ellipse cx="176.443" cy="211.924" rx="29.355" ry="23.377"/><ellipse cx="335.557" cy="211.924" rx="29.355" ry="23.377"/></g></g><path d="m172.998 265.506c-29.336-6.521-50.35-15.6-61.556-23.059-2.581 10.217-4.757 21.043-6.46 32.478-.847 5.689 1.696 11.356 6.485 14.54 12.475 8.293 37.064 18.582 71.726 25.132-1.505-6.703-6.272-25.385-10.195-49.091z" fill="#d2896f"/><path d="m325.948 189.421v-12c0-4.142-3.357-7.5-7.5-7.5s-7.5 3.358-7.5 7.5v12c0 4.142 3.357 7.5 7.5 7.5s7.5-3.358 7.5-7.5zm148.427 30.091c-22.191-16.989-53.439-31.154-90.49-41.082-1.717-3.125-3.478-6.187-5.307-9.143-15.873-25.642-35.356-44.28-56.344-53.899-21.103-9.673-41.858-9.232-58.439 1.242-4.736 2.992-10.855 2.992-15.592 0-20.322-12.838-47.504-10.273-72.71 6.861-3.426 2.328-4.315 6.993-1.987 10.419 2.329 3.425 6.992 4.315 10.419 1.986 20.416-13.877 40.925-16.278 56.267-6.584 9.603 6.067 22.013 6.066 31.615 0 34.431-21.757 95.112 17.516 120.107 109.635-5.409 3.071-14.062 7.251-26.856 11.574-4.971-4.872-11.884-6.624-18.431-4.875-9.378 2.506-19.376 4.622-29.717 6.291-7.032 1.134-12.539 5.898-14.892 12.106-14.889 1.703-30.34 2.571-46.018 2.571-69.023 0-115.778-16.285-135.908-27.674 10.714-39.441 26.618-64.985 39.445-80.426 2.648-3.186 2.21-7.915-.976-10.562-3.186-2.646-7.916-2.21-10.561.977-6.245 7.517-13.165 17.246-19.928 29.513-37.032 9.927-68.264 24.088-90.447 41.071-24.614 18.843-37.625 40.822-37.625 63.56 0 33.294 27.409 64.092 77.18 86.721 47.89 21.774 111.395 33.766 178.82 33.766 57.902 0 114.541-9.171 159.481-25.823 3.885-1.439 5.866-5.754 4.428-9.639-1.44-3.884-5.757-5.868-9.639-4.427-43.314 16.05-98.102 24.889-154.27 24.889-65.329 0-126.631-11.514-172.612-32.42-44.101-20.052-68.388-46.001-68.388-73.067 0-34.203 39.459-66.625 104.105-86.467-8.927 20.245-16.842 45.658-21.539 77.202-1.27 8.526 2.559 17.124 9.752 21.906 22.83 15.176 75.469 32.897 148.682 32.897 18.506 0 36.664-1.17 54.076-3.456 4.51 5.886 11.787 8.502 18.695 7.268 13.48-2.405 26.313-5.488 38.142-9.164 7.11-2.209 12.073-8.287 13.219-15.273 9.807-3.866 18.226-8.068 24.55-12.272 7.194-4.782 11.021-13.38 9.752-21.906-4.193-28.164-11.56-54.346-21.614-77.225 64.69 19.84 104.18 52.273 104.18 86.49 0 23.955-19.671 47.632-55.39 66.669-3.655 1.948-5.039 6.491-3.091 10.147 1.94 3.642 6.479 5.045 10.146 3.091 40.843-21.769 63.335-50.147 63.335-79.907 0-22.738-13.011-44.717-37.625-63.561zm-218.375 94.099c-74.724 0-123.398-19.103-140.379-30.39-2.372-1.577-3.636-4.405-3.219-7.205 1.149-7.718 2.498-15.04 4.007-21.988 26.163 13.713 74.797 27.584 139.59 27.584 15.527 0 30.85-.825 45.668-2.44l3.956 31.437c-16.001 1.99-32.655 3.002-49.623 3.002zm106.463-4.676c-11.235 3.491-23.458 6.425-36.326 8.721-2.394.428-4.661-1.215-4.963-3.615l-5.362-42.62c-.285-2.261 1.247-4.315 3.487-4.677 10.839-1.749 21.336-3.972 31.2-6.608 2.323-.618 4.648.804 5.19 3.099l9.593 40.717c.505 2.146-.733 4.335-2.819 4.983zm33.121-54.923c1.527 7.027 2.875 14.356 4.014 22.005.417 2.8-.847 5.628-3.22 7.205-4.672 3.106-11.025 6.359-18.35 9.426l-6.696-28.42c9.092-3.146 17.34-6.625 24.252-10.216zm-194.532-64.591v-12c0-4.142-3.357-7.5-7.5-7.5s-7.5 3.358-7.5 7.5v12c0 4.142 3.357 7.5 7.5 7.5 4.142 0 7.5-3.358 7.5-7.5zm54.948 14.643c8.478 0 16.54-3.672 22.118-10.074 2.722-3.123 2.396-7.86-.728-10.582-3.123-2.721-7.86-2.396-10.581.727-2.729 3.132-6.669 4.928-10.81 4.928s-8.08-1.796-10.81-4.928c-2.721-3.123-7.459-3.448-10.581-.727-3.123 2.721-3.449 7.459-.728 10.582 5.58 6.402 13.643 10.074 22.12 10.074z"/></g></svg>