<svg height="512pt" viewBox="0 -11 512.00057 512" width="512pt" xmlns="http://www.w3.org/2000/svg"><path d="m297.316406 7.5h-82.632812c-15.246094 0-27.601563 12.355469-27.601563 27.601562v33.617188l68.917969 22.660156 68.917969-22.660156v-33.617188c0-15.242187-12.355469-27.601562-27.601563-27.601562zm0 0" fill="#fd747f"/><path d="m227.082031 68.71875v-33.617188c0-15.246093 12.355469-27.601562 27.601563-27.601562h-40c-15.246094 0-27.601563 12.355469-27.601563 27.601562v33.617188l68.917969 22.660156 20-6.574218zm0 0" fill="#e36263"/><g fill="#fd747f"><path d="m41.535156 405.082031-27.574218 12.328125c-2.636719 15.324219-4.769532 28.015625-6.25 36.914063-1.328126 7.957031 3.796874 15.566406 11.660156 17.339843l29.597656 6.699219c8.148438 1.847657 16.253906-3.226562 18.183594-11.355469l8.421875-35.65625zm0 0"/><path d="m470.464844 405.082031 27.574218 12.328125c2.636719 15.324219 4.769532 28.015625 6.25 36.914063 1.328126 7.957031-3.796874 15.566406-11.660156 17.339843l-29.597656 6.699219c-8.148438 1.847657-16.253906-3.226562-18.183594-11.355469l-8.421875-35.65625zm0 0"/><path d="m256 412.691406-126.183594 18.945313.140625 19.644531c.121094 16.832031 13.800781 30.410156 30.632813 30.410156h190.820312c16.832032 0 30.511719-13.578125 30.632813-30.410156l.140625-19.644531zm0 0"/></g><path d="m37.710938 464.324219c1.480468-8.898438 3.609374-21.59375 6.25-36.914063.964843-5.613281 2-11.667968 3.09375-18.070312l-5.519532-4.257813-27.578125 12.328125c-.65625 3.832032-2.175781 12.710938-2.316406 13.558594-1.585937 9.324219-2.914063 17.238281-3.933594 23.355469-1.292969 7.761719 3.863281 15.578125 11.660157 17.339843l21.675781 4.902344c-2.746094-3.289062-4.089844-7.707031-3.332031-12.242187zm0 0" fill="#e36263"/><path d="m383.453125 254.496094.394531-55.898438 52.582032 232.753906 61.609374-13.941406c-11.191406-65.089844-31.503906-177.699218-49.71875-249.253906-26.847656-105.523438-115.203124-99.4375-115.203124-99.4375h-154.230469s-88.359375-6.085938-115.207031 99.4375c-18.210938 71.554688-38.527344 184.164062-49.71875 249.253906l61.609374 13.941406 52.582032-232.753906.394531 55.898438 39.175781 7.519531 39.574219 15.054687 48.703125-18.609374 43.628906 18.609374 44.648438-19.113281zm0 0" fill="#75b8db"/><path d="m93.679688 168.15625c22.6875-89.175781 89.300781-98.644531 109.398437-99.4375h-24.191406s-88.359375-6.085938-115.207031 99.4375c-18.210938 71.554688-38.527344 184.164062-49.71875 249.253906l30.53125 6.910156c11.292968-65.816406 31.257812-185.726562 49.1875-256.164062zm0 0" fill="#66a9cc"/><path d="m382.8125 343.804688.316406-44.652344-38.851562-41.195313-44.644532 19.113281-43.632812-18.609374-48.195312 21.816406-25.875-21.265625h-29.84375l-23.214844 40.140625.316406 44.652344 34.984375 4.457031 46.167969 22.320312 45.660156-23.335937 44.136719 23.335937 44.140625-23.84375zm0 0" fill="#efedee"/><path d="m382.488281 388.460938v.011718l-.304687 43.164063h-252.367188l-.304687-43.164063v-.011718l34.660156-40.199219 46.167969 22.320312 45.660156-23.335937 44.136719 23.335937 44.140625-23.84375zm0 0" fill="#efedee"/><path d="m383.453125 254.496094-.324219 44.65625-37.289062-22.082032-44.921875 26.597657-44.917969-26.597657-44.917969 26.597657-44.921875-26.597657-37.289062 22.082032-.324219-44.65625 37.613281-22.273438 44.921875 26.605469 44.917969-26.605469 44.917969 26.605469 44.921875-26.605469zm0 0" fill="#fd747f"/><path d="m382.8125 343.804688-.324219 44.65625-36.648437-21.703126-44.921875 26.605469-44.917969-26.605469-44.917969 26.605469-44.921875-26.605469-36.648437 21.703126-.324219-44.65625 36.972656-21.894532 44.921875 26.605469 44.917969-26.605469 44.917969 26.605469 44.921875-26.605469zm0 0" fill="#fd747f"/><path d="m179.582031 148.445312v12.472657c0 4.140625 3.359375 7.5 7.5 7.5s7.5-3.359375 7.5-7.5v-12.472657c0-4.140624-3.359375-7.5-7.5-7.5s-7.5 3.359376-7.5 7.5zm0 0"/><path d="m317.417969 148.445312v12.472657c0 4.140625 3.359375 7.5 7.5 7.5s7.5-3.359375 7.5-7.5v-12.472657c0-4.140624-3.359375-7.5-7.5-7.5s-7.5 3.359376-7.5 7.5zm0 0"/><path d="m267.363281 155.113281c-2.757812 3.152344-6.898437 4.960938-11.363281 4.960938s-8.609375-1.808594-11.363281-4.960938c-2.726563-3.117187-7.464844-3.4375-10.582031-.710937-3.121094 2.726562-3.4375 7.464844-.710938 10.582031 5.605469 6.414063 13.863281 10.089844 22.65625 10.089844s17.050781-3.675781 22.65625-10.085938c2.726562-3.121093 2.40625-7.855469-.710938-10.585937-3.117187-2.726563-7.855468-2.40625-10.582031.710937zm0 0"/><path d="m17.714844 478.980469 29.59375 6.695312c12.039062 2.730469 24.292968-4.949219 27.140625-16.945312l46.664062-204.945313 1.34375 187.550782c.152344 20.871093 17.257813 37.851562 38.132813 37.851562h190.820312c20.875 0 37.980469-16.980469 38.132813-37.851562l1.34375-187.550782s46.652343 204.898438 46.667969 204.953125c2.8125 11.925781 15.195312 19.644531 27.132812 16.9375l29.597656-6.695312c11.742188-2.652344 19.386719-14.023438 17.402344-25.886719-2.042969-12.277344-37.636719-214.257812-56.097656-286.785156-5.65625-22.222656-14.429688-41.40625-26.085938-57.023438-2.476562-3.320312-7.175781-4.003906-10.496094-1.523437-3.320312 2.476562-4 7.175781-1.523437 10.496093 10.472656 14.03125 18.402344 31.441407 23.570313 51.75 17.660156 69.390626 37.433593 178.375 48.382812 241.660157l-47.34375 10.714843-50.929688-225.4375c-.839843-3.71875-4.328124-6.214843-8.121093-5.804687-3.789063.410156-6.667969 3.59375-6.695313 7.402344l-.300781 42.851562-26.386719-15.625c-2.355468-1.394531-5.285156-1.394531-7.644531 0l-41.097656 24.339844-41.097657-24.339844c-2.355468-1.394531-5.285156-1.394531-7.644531 0l-41.097656 24.339844-41.097656-24.339844c-2.355469-1.394531-5.285157-1.394531-7.640625 0l-26.386719 15.625-.300781-42.851562c-.027344-3.808594-2.910156-6.992188-6.695313-7.402344-3.792969-.410156-7.28125 2.085937-8.121093 5.804687l-50.925782 225.4375-47.347656-10.714843c10.949219-63.277344 30.71875-172.253907 48.386719-241.660157 10.472656-41.171874 31.636719-69.445312 62.90625-84.035156 23.488281-10.964844 44.328125-9.785156 44.515625-9.773437.171875.015625 155.085937.015625 155.257812 0 .335938-.019531 33.808594-2.023438 64.335938 21.945312 3.257812 2.558594 7.972656 1.992188 10.53125-1.265625 2.558594-3.257812 1.992187-7.972656-1.265625-10.53125-33.8125-26.550781-70.425781-25.34375-74.339844-25.128906h-.472656v-26.117188c0-19.355468-15.746094-35.101562-35.101563-35.101562h-82.632812c-19.355469 0-35.101563 15.746094-35.101563 35.101562v26.117188h-.476562c-2.945313-.15625-25.308594-.898438-50.882813 10.828125-24.703125 11.328125-57.210937 36.878906-71.8125 94.257813-18.464844 72.546874-54.011718 274.265624-56.097656 286.785156-1.984375 11.867187 5.660156 23.238281 17.402344 25.890625zm474.269531-52.511719c1.65625 9.679688 3.300781 19.433594 4.90625 29.089844.675781 4.03125-1.921875 7.890625-5.914063 8.792968 0 0-29.59375 6.695313-29.601562 6.695313-3.964844.898437-8.234375-1.585937-9.226562-5.761719l-6.679688-28.289062zm-117.246094-2.332031h-155.78125c-4.027343 0-7.5 3.464843-7.5 7.5 0 4.023437 3.480469 7.5 7.5 7.5h155.671875l-.085937 12.089843c-.089844 12.660157-10.46875 22.964844-23.132813 22.964844h-190.820312c-12.664063 0-23.039063-10.304687-23.132813-22.964844l-.085937-12.089843h51.585937c4.019531 0 7.5-3.476563 7.5-7.5 0-4.023438-3.484375-7.5-7.5-7.5h-51.695312l-.21875-31.417969 29.117187-17.246094 41.097656 24.34375c2.359376 1.394532 5.289063 1.394532 7.644532 0l41.097656-24.34375 41.097656 24.34375c2.355469 1.394532 5.285156 1.394532 7.644532 0l41.097656-24.34375 29.117187 17.246094zm.347657-48.777344-25.425782-15.054687c-2.308594-1.367188-5.328125-1.367188-7.644531 0l-41.097656 24.34375-41.097657-24.34375c-2.3125-1.367188-5.324218-1.378907-7.644531 0l-41.09375 24.34375s-41.039062-24.308594-41.097656-24.34375c-2.34375-1.386719-5.304687-1.386719-7.644531 0l-25.421875 15.054687-.199219-27.296875 29.441406-17.4375s41.066406 24.324219 41.097656 24.34375c2.242188 1.328125 5.277344 1.402344 7.644532 0l41.097656-24.34375 41.097656 24.34375c2.355469 1.394531 5.285156 1.394531 7.644532 0l41.097656-24.34375 29.441406 17.4375zm.320312-44.65625-25.746094-15.246094c-2.355468-1.394531-5.285156-1.394531-7.644531 0l-41.09375 24.339844-41.097656-24.339844c-2.34375-1.386719-5.304688-1.386719-7.644531 0l-41.097657 24.339844-41.097656-24.339844c-2.355469-1.394531-5.289063-1.394531-7.644531 0l-25.746094 15.246094-.191406-27.292969 29.761718-17.621094 41.097657 24.332032c2.355469 1.394531 5.285156 1.394531 7.640625 0l41.097656-24.332032 41.097656 24.332032c2.339844 1.386718 5.300782 1.386718 7.644532 0l41.097656-24.332032 16.316406 9.660157 13.441406 7.960937zm-209.246094-89.761719 41.097656 24.339844c2.355469 1.394531 5.289063 1.394531 7.644532 0l41.097656-24.339844s41.089844 24.332032 41.097656 24.339844c2.320313 1.375 5.324219 1.371094 7.644532 0l41.097656-24.339844 30.082031 17.8125-.199219 27.296875-26.0625-15.433593c-2.355468-1.394532-5.285156-1.394532-7.640625 0l-41.101562 24.335937-41.097657-24.335937c-2.355468-1.394532-5.285156-1.394532-7.640624 0l-41.101563 24.335937-41.097656-24.335937c-2.355469-1.394532-5.285157-1.394532-7.640625 0l-26.0625 15.433593-.199219-27.296875zm28.421875-205.839844c0-11.082031 9.015625-20.101562 20.101563-20.101562h82.632812c11.082032 0 20.101563 9.019531 20.101563 20.101562v26.117188h-122.835938zm-179.472656 420.453126c1.640625-9.851563 3.253906-19.433594 4.90625-29.082032l46.515625 10.523438s-6.667969 28.234375-6.679688 28.28125c-.960937 4.066406-5.160156 6.691406-9.230468 5.769531l-29.597656-6.695313c-3.992188-.902343-6.589844-4.761718-5.914063-8.796874zm0 0"/></svg>