<svg id="Layer_1" height="512" viewBox="0 0 512 512" width="512" xmlns="http://www.w3.org/2000/svg" data-name="Layer 1"><path d="m460.44 190.45-45.51 2.64v-2.37a13.736 13.736 0 0 0 -13.74-13.73 13.738 13.738 0 0 0 13.74-13.74v-61.81h.13a123.907 123.907 0 0 1 36.11 55.57q5.235 16.56 9.27 33.44z" fill="#4a5160"/><path d="m474.95 280.48-60.02 3.47v-4.93a13.738 13.738 0 0 0 -13.74-13.74 13.736 13.736 0 0 0 13.74-13.73v-58.46l45.51-2.64a492.138 492.138 0 0 1 9.54 51.72z" fill="#6d7486"/><path d="m474.95 280.48 11.66 89.96-.11.01-71.57 4.14v-7.28a13.729 13.729 0 0 0 -13.74-13.73 13.738 13.738 0 0 0 13.74-13.74v-55.89z" fill="#4a5160"/><path d="m486.61 370.44-.11.01-71.57 4.14v45.45h.04l7.75 24.63 72.96-4.22z" fill="#6d7486"/><path d="m401.19 441.87h-290.38c-.31 0-.62-.01-.93-.04v49.17h292.24v-49.17c-.31.03-.62.04-.93.04z" fill="#6d7486"/><path d="m97.07 374.6v-7.29a13.729 13.729 0 0 1 13.74-13.73h145.19v88.29h-145.19c-.31 0-.62-.01-.93-.04a13.72 13.72 0 0 1 -12.81-13.7z" fill="#e75163"/><path d="m414.93 374.59v53.54a13.72 13.72 0 0 1 -12.81 13.7c-.31.03-.62.04-.93.04h-145.19v-88.29h145.19a13.729 13.729 0 0 1 13.74 13.73z" fill="#db465f"/><path d="m414.93 283.95v55.89a13.738 13.738 0 0 1 -13.74 13.74h-145.19v-88.3h145.19a13.738 13.738 0 0 1 13.74 13.74z" fill="#ed5d71"/><path d="m97.07 283.97v-4.95a13.738 13.738 0 0 1 13.74-13.74h145.19v88.3h-145.19a13.738 13.738 0 0 1 -13.74-13.74z" fill="#fb6771"/><path d="m256 176.99v88.29h-145.19a13.736 13.736 0 0 1 -13.74-13.73v-60.83a13.736 13.736 0 0 1 13.74-13.73z" fill="#e75163"/><path d="m414.93 193.09v58.46a13.736 13.736 0 0 1 -13.74 13.73h-145.19v-88.29h145.19a13.736 13.736 0 0 1 13.74 13.73z" fill="#db465f"/><path d="m407.88 85.61-9.58-4.2a353.526 353.526 0 0 0 -74.61-23.29l-67.69-.05v118.92h145.19a13.738 13.738 0 0 0 13.74-13.74v-66.86a11.761 11.761 0 0 0 -7.05-10.78z" fill="#ed5d71"/><path d="m188.31 58.11a354.54 354.54 0 0 0 -74.61 23.3l-9.58 4.2a11.761 11.761 0 0 0 -7.05 10.78v66.86a13.738 13.738 0 0 0 13.74 13.74h145.19v-118.92z" fill="#fb6771"/><path d="m97.07 163.25a13.738 13.738 0 0 0 13.74 13.74 13.736 13.736 0 0 0 -13.74 13.73v2.38l-45.52-2.64q4.05-16.875 9.28-33.45a123.675 123.675 0 0 1 36.24-55.68z" fill="#4a5160"/><path d="m97.07 251.55a13.736 13.736 0 0 0 13.74 13.73 13.738 13.738 0 0 0 -13.74 13.74v4.95l-60.02-3.48 4.97-38.32a494.511 494.511 0 0 1 9.53-51.71l45.52 2.64z" fill="#6d7486"/><path d="m97.07 339.84a13.738 13.738 0 0 0 13.74 13.74 13.729 13.729 0 0 0 -13.74 13.73v7.29l-71.68-4.15 11.66-89.96 60.02 3.48z" fill="#4a5160"/><path d="m25.39 370.45-9.07 70 72.96 4.22 7.74-24.61h.05v-45.46z" fill="#6d7486"/><path d="m492.51 441.48 3.17 37.87-58.77 3.06-7.1-37.87-.02-.28 62.67-3.62z" fill="#fb6771"/><path d="m83.86 444.36-.01.18-7.1 37.87-58.77-3.06 3.17-37.87.04-.75z" fill="#fb6771"/><path d="m256 73.98v47.09l67.69-49.05v-51.02z" fill="#89abce"/><path d="m323.69 21-67.69 52.98-67.69-52.98z" fill="#779ec6"/><path d="m110.81 441.87c-.31 0-.62-.01-.93-.04v49.17h30v-49.13z" fill="#b0b5ca"/><path d="m127.07 428.13v-60.82a13.729 13.729 0 0 1 13.74-13.73h-30a13.729 13.729 0 0 0 -13.74 13.73v60.82a13.72 13.72 0 0 0 12.81 13.7c.31.03.62.04.93.04h30c-.31 0-.62-.01-.93-.04a13.72 13.72 0 0 1 -12.81-13.7z" fill="#ff9cb1"/><path d="m127.07 339.84v-60.82a13.738 13.738 0 0 1 13.74-13.74h-30a13.738 13.738 0 0 0 -13.74 13.74v60.82a13.738 13.738 0 0 0 13.74 13.74h30a13.738 13.738 0 0 1 -13.74-13.74z" fill="#ffc2c9"/><path d="m127.07 251.55v-60.83a13.736 13.736 0 0 1 13.74-13.73h-30a13.736 13.736 0 0 0 -13.74 13.73v60.83a13.736 13.736 0 0 0 13.74 13.73h30a13.736 13.736 0 0 1 -13.74-13.73z" fill="#ff9cb1"/><path d="m21.19 440.73-.04.75-3.17 37.87 30.036 1.564 3.134-37.434.04-.75z" fill="#ff9cb1"/><path d="m90.83 160.01a123.894 123.894 0 0 1 6.24-15.883v-42.8a123.675 123.675 0 0 0 -36.24 55.68q-5.235 16.575-9.28 33.45l30.31 1.758q3.94-16.239 8.97-32.205z" fill="#6d7486"/><path d="m72.02 245.17a494.511 494.511 0 0 1 9.53-51.71c.1-.415.209-.827.31-1.242l-30.31-1.758a494.511 494.511 0 0 0 -9.53 51.71l-4.97 38.32 30.162 1.749z" fill="#b0b5ca"/><path d="m37.05 280.49-11.66 89.96 30.162 1.746 11.66-89.957z" fill="#6d7486"/><path d="m25.39 370.45-9.07 70 30.163 1.745 9.069-69.999z" fill="#b0b5ca"/><path d="m55.552 372.196-30.162-1.746z" fill="#6d7486"/><path d="m127.07 96.39a11.761 11.761 0 0 1 7.05-10.78l9.58-4.2a354.54 354.54 0 0 1 74.61-23.3h-30a354.54 354.54 0 0 0 -74.61 23.3l-9.58 4.2a11.761 11.761 0 0 0 -7.05 10.78v66.86a13.738 13.738 0 0 0 13.74 13.74h30a13.738 13.738 0 0 1 -13.74-13.74z" fill="#ffc2c9"/><path d="m188.31 21v51.02l67.69 49.05v-47.09z" fill="#9ebddb"/><g fill="#284268"><path d="m242.51 476.83a6 6 0 0 0 6-6v-9.78a6 6 0 1 0 -12 0v9.78a6 6 0 0 0 6 6z"/><path d="m215.52 476.83a6 6 0 0 0 6-6v-9.78a6 6 0 0 0 -12 0v9.78a6 6 0 0 0 6 6z"/><path d="m188.54 476.83a6 6 0 0 0 6-6v-9.78a6 6 0 0 0 -12 0v9.78a6 6 0 0 0 6 6z"/><path d="m161.56 455.05a6 6 0 0 0 -6 6v9.78a6 6 0 0 0 12 0v-9.78a6 6 0 0 0 -6-6z"/><path d="m134.57 455.05a6 6 0 0 0 -6 6v9.78a6 6 0 0 0 12 0v-9.78a6 6 0 0 0 -6-6z"/><path d="m269.49 476.83a6 6 0 0 0 6-6v-9.78a6 6 0 1 0 -12 0v9.78a6 6 0 0 0 6 6z"/><path d="m296.48 476.83a6 6 0 0 0 6-6v-9.78a6 6 0 1 0 -12 0v9.78a6 6 0 0 0 6 6z"/><path d="m323.46 476.83a6 6 0 0 0 6-6v-9.78a6 6 0 0 0 -12 0v9.78a6 6 0 0 0 6 6z"/><path d="m350.44 476.83a6 6 0 0 0 6-6v-9.78a6 6 0 0 0 -12 0v9.78a6 6 0 0 0 6 6z"/><path d="m377.43 476.83a6 6 0 0 0 6-6v-9.78a6 6 0 0 0 -12 0v9.78a6 6 0 0 0 6 6z"/><path d="m501.659 478.85-2.789-33.321a5.986 5.986 0 0 0 2.76-5.85l-25.7-198.279a499.988 499.988 0 0 0 -9.655-52.342c-2.714-11.353-5.872-22.743-9.382-33.849a129.657 129.657 0 0 0 -35.963-56.532v-2.287a17.759 17.759 0 0 0 -10.641-16.275l-9.579-4.2a360.028 360.028 0 0 0 -71.02-22.707v-32.208a5.973 5.973 0 0 0 -6-5.99v-.01l-135.38.01a5.973 5.973 0 0 0 -6 5.99v32.2a361.246 361.246 0 0 0 -71.019 22.715l-9.573 4.2a17.762 17.762 0 0 0 -10.648 16.275v2.29a129.4 129.4 0 0 0 -35.961 56.52c-3.5 11.086-6.662 22.477-9.394 33.857a502.509 502.509 0 0 0 -9.645 52.343l-25.7 198.279a6 6 0 0 0 4.361 6.556l-2.731 32.615a6 6 0 0 0 5.667 6.492l58.77 3.06c.106.006.211.008.315.008a6 6 0 0 0 5.894-4.894l6.162-32.863.128.007c.116.007.23.01.345.01a6 6 0 0 0 5.719-4.2l1.5-4.771a19.76 19.76 0 0 0 7.376 4.91v44.391a6 6 0 0 0 6 6h292.244a6 6 0 0 0 6-6v-44.391a19.768 19.768 0 0 0 7.376-4.91l1.5 4.772a6 6 0 0 0 5.721 4.2c.115 0 .233 0 .35-.01l1.765-.1 6.18 32.958a6 6 0 0 0 5.894 4.894c.1 0 .21 0 .315-.008l58.77-3.06a6 6 0 0 0 5.667-6.492zm-429.839-2.7-47.344-2.47 2.224-26.619 50.026 2.893zm19.25-57.17-6.112 19.433-61.858-3.582 7.527-58.068 60.445 3.5zm0-51.67v.933l-58.9-3.41 10.114-78.027 48.785 2.826v50.208a19.665 19.665 0 0 0 5.594 13.739 19.647 19.647 0 0 0 -5.593 13.731zm.071-89.7-47.309-2.739 4.138-31.93c2.011-15.487 4.8-31 8.277-46.2l34.823 2.017v52.792a19.647 19.647 0 0 0 5.594 13.731 19.663 19.663 0 0 0 -5.523 12.331zm.328-90.847-32.346-1.873c2.243-8.776 4.727-17.519 7.429-26.076a117.155 117.155 0 0 1 24.518-43.066v47.5a19.665 19.665 0 0 0 5.594 13.739 19.694 19.694 0 0 0 -5.195 9.778zm214.821-159.763-50.29 39.361-50.29-39.361zm11.4 6.315v35.643l-55.69 40.354v-32.412zm-123.38 0 55.69 43.585v32.41l-55.69-40.352zm-91.24 63.075a5.764 5.764 0 0 1 3.459-5.285l9.58-4.2a349.24 349.24 0 0 1 66.2-21.429v6.544a6 6 0 0 0 2.48 4.858l65.211 47.254v46.858h-139.19a7.749 7.749 0 0 1 -7.74-7.74zm0 94.33a7.744 7.744 0 0 1 7.74-7.73h139.19v76.29h-139.19a7.744 7.744 0 0 1 -7.74-7.73zm0 88.3a7.749 7.749 0 0 1 7.74-7.74h139.19v76.3h-139.19a7.749 7.749 0 0 1 -7.74-7.74zm293.05 205.98h-280.24v-37.13h36.453a6 6 0 0 0 0-12h-41.523a3.519 3.519 0 0 1 -.356-.013l-.181-.014a7.738 7.738 0 0 1 -7.2-7.713v-60.82a7.744 7.744 0 0 1 7.74-7.73h139.187v76.29h-68.333a6 6 0 0 0 0 12h214.453zm12.81-56.87a7.738 7.738 0 0 1 -7.2 7.713l-.181.014a3.519 3.519 0 0 1 -.356.013h-139.193v-76.29h139.19a7.744 7.744 0 0 1 7.74 7.73zm0-88.29a7.749 7.749 0 0 1 -7.74 7.74h-139.19v-76.3h139.19a7.749 7.749 0 0 1 7.74 7.74zm0-88.29a7.744 7.744 0 0 1 -7.74 7.73h-139.19v-76.29h139.19a7.744 7.744 0 0 1 7.74 7.73zm0-88.3a7.749 7.749 0 0 1 -7.74 7.74h-139.19v-46.858l65.21-47.254a6 6 0 0 0 2.48-4.858v-6.535a348.065 348.065 0 0 1 66.2 21.42l9.587 4.2a5.762 5.762 0 0 1 3.452 5.282zm12 0v-47.5a117.443 117.443 0 0 1 24.519 43.069c2.708 8.566 5.189 17.3 7.424 26.061l-32.344 1.876a19.688 19.688 0 0 0 -5.193-9.766 19.665 19.665 0 0 0 5.594-13.74zm0 88.3v-52.8l34.815-2.019c3.485 15.195 6.274 30.713 8.285 46.21l4.137 31.922-47.309 2.737a19.662 19.662 0 0 0 -5.523-12.317 19.644 19.644 0 0 0 5.595-13.733zm-5.6 102.029a19.661 19.661 0 0 0 5.6-13.739v-50.222l48.784-2.825 10.114 78.033-58.9 3.407v-.923a19.644 19.644 0 0 0 -5.593-13.731zm11.705 84.83-6.11-19.417v-38.738l60.445-3.5 7.528 58.078zm14.8 37.737-4.928-26.286 50.036-2.891 2.237 26.711z"/></g></svg>